<svg version="1.1" xmlns="http://www.w3.org/2000/svg" x="0" y="0" viewBox="0 0 110 108.9" xml:space="preserve"><style type="text/css">
	.st0{fill:none;}
	.st1{fill:#F68D5F;}
	.st2{fill:#F37655;}
	.st3{fill:#DA5233;}
	.st4{fill:#F26A45;}
	.st5{fill:#ED1B2E;}
	.st6{fill:#D51F2C;}
	.st7{fill:#FFFFFF;}
	.st8{fill:#CF4227;}
</style><rect x="51.4" y="50.9" transform="matrix(-0.7071 -0.7071 0.7071 -0.7071 55.374 131.8788)" class="st0" width="7.2" height="7.2"/><polygon class="st1" points="49.9 54.5 55 49.4 43 37.4 55 13.8 48 0 6.5 6.5 0 47.9 12.8 54.5 37.4 41.9 "/><polygon class="st2" points="55 49.4 60.1 54.5 72.6 41.9 97.2 54.5 110 47.9 103.5 6.5 62 0 55 13.8 67 37.4 "/><polygon class="st3" points="55 59.6 49.9 54.5 37.4 67 12.8 54.5 0 61 6.5 102.4 48 108.9 55 95.1 43 71.6 "/><polygon class="st4" points="72.6 67 60.1 54.5 55 59.6 67 71.6 55 95.1 62 108.9 103.5 102.4 110 61 97.2 54.5 "/><polygon class="st5" points="55 49.4 67 37.4 55 13.8 43 37.4 "/><polygon class="st5" points="49.9 54.5 37.4 41.9 12.8 54.5 37.4 67 "/><polygon class="st5" points="60.1 54.5 72.6 67 97.2 54.5 72.6 41.9 "/><polygon class="st6" points="55 59.6 43 71.6 55 95.1 67 71.6 "/><rect x="20.5" y="20" class="st7" width="69" height="69"/><path class="st8" d="M51.7 75.2c-0.3 0.3-0.6 0.4-1.2 0.2 -3.1-0.9-5.8-2.7-13.3-4.2 -1.2-0.3-0.9-0.2-2-0.3 -0.4-0.1-0.8-0.3-0.7-0.7l0.1-2.8c-5.9-2-10.3-7.1-10.3-14.3 0-9.2 7.3-15.2 15.6-15.2 8.3 0 15.6 6 15.6 15.2 0 6.9-3.9 11.7-9.5 14 -0.2 0.1-0.3 0.3 0 0.4 0.7 0.3 2.4 0.8 5 1.4 1.3 0.3 4.3 0.9 5.6 1 0.5 0.1 0.6 0.6 0.1 1L51.7 75.2zM39.9 45.1c-4.3 0-7.7 3.7-7.7 8 0 4.2 3.4 7.9 7.7 7.9 4.3 0 7.7-3.6 7.7-7.9C47.6 48.7 44.2 45.1 39.9 45.1zM85.2 67.7h-8.1c-0.4 0-1-0.3-1.4-1l-5.2-7.9 -5.3 7.9c-0.4 0.7-1 1-1.4 1h-8.2c-0.7 0-0.5-0.6-0.2-1l10.7-13.5 -10.4-14c-0.2-0.3-0.4-1 0.3-1h8c0.4 0 1 0.3 1.4 1l5 7.6 4.9-7.6c0.4-0.7 1-1 1.4-1h8.1c0.7 0 0.6 0.5 0.3 1L75 52.9l10.5 13.8C85.8 67.1 85.9 67.7 85.2 67.7z"/></svg>